<svg width="39.234619" height="40.000000" viewBox="0 0 39.2346 40" fill="none" xmlns="http://www.w3.org/2000/svg" xmlns:xlink="http://www.w3.org/1999/xlink">
	<desc>
			Created with Pixso.
	</desc>
	<defs/>
	<rect id="back" rx="19.617346" width="39.234692" height="40.000000" fill="#FF3E79" fill-opacity="1.000000"/>
	<path id="icon" d="M27.4453 12L11.7898 12C11.2375 12 10.7898 12.4478 10.7898 13C10.7898 13.5522 11.2375 14 11.7898 14L27.4453 14C27.9976 14 28.4453 13.5522 28.4453 13C28.4453 12.4478 27.9976 12 27.4453 12ZM11.7896 19L19.5984 19C20.1506 19 20.5984 19.4478 20.5984 20C20.5984 20.5522 20.1506 21 19.5984 21L11.7896 21C11.2373 21 10.7896 20.5522 10.7896 20C10.7896 19.4478 11.2373 19 11.7896 19ZM23.5217 26L11.7896 26C11.2373 26 10.7896 26.4478 10.7896 27C10.7896 27.5522 11.2373 28 11.7896 28L23.5217 28C24.074 28 24.5217 27.5522 24.5217 27C24.5217 26.4478 24.074 26 23.5217 26Z" clip-rule="evenodd" fill="#FFFFFF" fill-opacity="1.000000" fill-rule="evenodd"/>
</svg>
