<svg width="39.234619" height="40.000000" viewBox="0 0 39.2346 40" fill="none" xmlns="http://www.w3.org/2000/svg" xmlns:xlink="http://www.w3.org/1999/xlink">
	<desc>
			Created with Pixso.
	</desc>
	<defs/>
	<rect id="back" rx="19.617346" width="39.234692" height="40.000000" fill="#FF3E79" fill-opacity="1.000000"/>
	<path id="icon" d="M12.5161 23.25L15.0073 22.96C15.6057 22.8899 16.1943 23.1001 16.616 23.53L18.4209 25.3701C21.1968 23.9299 23.4724 21.6201 24.8848 18.78L23.0701 16.9299C22.6484 16.5 22.4424 15.8999 22.511 15.29L22.7954 12.77C22.9133 11.76 23.7468 11 24.7473 11L26.4443 11C27.5527 11 28.4746 11.9399 28.406 13.0701C27.8862 21.6101 21.1868 28.4299 12.8201 28.96C11.7117 29.03 10.7898 28.0901 10.7898 26.96L10.7898 25.23C10.7798 24.22 11.5254 23.3701 12.5161 23.25Z" fill="#FFFFFF" fill-opacity="1.000000" fill-rule="evenodd"/>
</svg>
