<svg width="39.234619" height="40.000000" viewBox="0 0 39.2346 40" fill="none" xmlns="http://www.w3.org/2000/svg" xmlns:xlink="http://www.w3.org/1999/xlink">
	<desc>
			Created with Pixso.
	</desc>
	<defs/>
	<rect id="back" rx="19.617346" width="39.234692" height="40.000000" fill="#FF3E79" fill-opacity="1.000000"/>
	<path id="icon" d="M13.2415 30C13.2415 29.1716 12.583 28.5 11.7705 28.5L11.7705 11C11.7705 10.4478 12.2183 10 12.7705 10L26.4644 10C27.0166 10 27.4644 10.4478 27.4644 11L27.4644 28.5L27.4641 28.5C26.6516 28.5 25.9929 29.1714 25.9929 30L25.012 30C25.012 29.1714 24.3533 28.5 23.5408 28.5C22.7283 28.5 22.0696 29.1714 22.0696 30L21.0886 30C21.0886 29.1714 20.4299 28.5 19.6174 28.5C18.8049 28.5 18.1462 29.1714 18.1462 30L17.165 30C17.165 29.1714 16.5063 28.5 15.6938 28.5C14.8813 28.5 14.2227 29.1714 14.2227 30L13.2415 30ZM17.979 22.3828C19.0979 22.5938 20.1604 22.3445 21.0066 21.7886L23.0752 23.8975C23.4419 24.2712 24.0437 24.2712 24.4199 23.8879C24.7866 23.5139 24.7866 22.9004 24.4199 22.5266L22.3513 20.4275C22.8777 19.5742 23.1316 18.5486 22.9531 17.4368C22.6616 15.644 21.2417 14.168 19.4741 13.8804C16.625 13.4202 14.218 15.8262 14.5752 18.7117C14.801 20.5327 16.2114 22.0474 17.979 22.3828ZM16.3865 18.0591C16.3865 16.7603 17.4204 15.7061 18.6943 15.7061C19.9683 15.7061 21.0022 16.7603 21.0022 18.0591C21.0022 19.3579 19.9683 20.4119 18.6943 20.4119C17.4204 20.4119 16.3865 19.3579 16.3865 18.0591Z" clip-rule="evenodd" fill="#FFFFFF" fill-opacity="1.000000" fill-rule="evenodd"/>
</svg>
