<svg width="39.234619" height="40.000000" viewBox="0 0 39.2346 40" fill="none" xmlns="http://www.w3.org/2000/svg" xmlns:xlink="http://www.w3.org/1999/xlink">
	<desc>
			Created with Pixso.
	</desc>
	<defs/>
	<rect id="back" rx="19.617346" width="39.234692" height="40.000000" fill="#FF3E79" fill-opacity="1.000000"/>
	<path id="icon" d="M11.77 11L27.4639 11C28.543 11 29.4258 11.8999 29.4258 13L29.4258 24C29.4258 25.1001 28.543 26 27.4639 26L13.7319 26L9.80835 31L9.81812 13C9.81812 11.8999 10.6912 11 11.77 11ZM14.7129 17L24.5215 17C25.061 17 25.5024 16.55 25.5024 16C25.5024 15.45 25.061 15 24.5215 15L14.7129 15C14.1733 15 13.7322 15.45 13.7322 16C13.7322 16.55 14.1733 17 14.7129 17ZM20.5981 22L14.7129 22C14.1736 22 13.7322 21.55 13.7322 21C13.7322 20.45 14.1736 20 14.7129 20L20.5981 20C21.1377 20 21.5791 20.45 21.5791 21C21.5791 21.55 21.1377 22 20.5981 22Z" clip-rule="evenodd" fill="#FFFFFF" fill-opacity="1.000000" fill-rule="evenodd"/>
	<mask id="mask0_1885" mask-type="alpha" maskUnits="userSpaceOnUse" x="9.808350" y="11.000000" width="19.617432" height="20.000000">
		<path id="icon" d="M11.77 11L27.4639 11C28.543 11 29.4258 11.8999 29.4258 13L29.4258 24C29.4258 25.1001 28.543 26 27.4639 26L13.7319 26L9.80835 31L9.81812 13C9.81812 11.8999 10.6912 11 11.77 11ZM14.7129 17L24.5215 17C25.061 17 25.5024 16.55 25.5024 16C25.5024 15.45 25.061 15 24.5215 15L14.7129 15C14.1733 15 13.7322 15.45 13.7322 16C13.7322 16.55 14.1733 17 14.7129 17ZM20.5981 22L14.7129 22C14.1736 22 13.7322 21.55 13.7322 21C13.7322 20.45 14.1736 20 14.7129 20L20.5981 20C21.1377 20 21.5791 20.45 21.5791 21C21.5791 21.55 21.1377 22 20.5981 22Z" clip-rule="evenodd" fill="#FFFFFF" fill-opacity="1.000000" fill-rule="evenodd"/>
	</mask>
</svg>
