<svg width="39.234619" height="40.000000" viewBox="0 0 39.2346 40" fill="none" xmlns="http://www.w3.org/2000/svg" xmlns:xlink="http://www.w3.org/1999/xlink">
	<desc>
			Created with Pixso.
	</desc>
	<defs/>
	<rect id="back" rx="19.617346" width="39.234692" height="40.000000" fill="#FF3E79" fill-opacity="1.000000"/>
	<path id="Path" d="M17.9087 23.4583L18.3096 23.0496L16.6255 21.3323L16.2246 21.7412L16.0242 21.5366C15.7034 21.1687 15.3826 20.9644 15.0618 21.0051C14.8213 21.0051 14.6208 21.1687 14.4604 21.4141C14.22 21.8228 14.3401 22.2727 14.3804 22.5588C14.3804 22.6406 14.4204 22.6814 14.4204 22.7632C14.4204 22.886 14.4204 23.0496 14.1396 23.0903C13.7388 23.2129 13.2175 23.3357 12.6963 23.6218C11.9746 24.0308 11.4934 24.3987 11.2126 24.7666C9.72925 26.7292 9.80933 28.4055 9.80933 28.4873C9.80933 28.6099 9.84937 28.6917 9.92969 28.7327L11.0122 29.8774C11.0925 29.9592 11.1726 30 11.2527 30C11.2527 30 11.293 30 11.373 30C11.7739 30 13.2175 29.9182 14.9016 28.5691C15.2625 28.2827 15.6233 27.7922 16.0242 27.0562C16.3049 26.5657 16.4653 26.0342 16.5454 25.5845C16.6255 25.2981 16.7458 25.2981 16.8662 25.2981C16.9062 25.2981 16.9866 25.3391 17.0667 25.3391C17.2271 25.3799 17.3875 25.4209 17.5879 25.4209C17.7883 25.4209 17.9888 25.3799 18.1895 25.2573C18.4299 25.0938 18.5903 24.8894 18.6304 24.644C18.6704 24.3169 18.51 23.9897 18.1492 23.7036L17.9087 23.4583Z" fill="#FFFFFF" fill-opacity="1.000000" fill-rule="nonzero"/>
	<path id="Path" d="M26.3696 14.8784L27.4827 14.3259C27.5239 14.2834 27.6064 14.241 27.6475 14.1985L29.3379 11.8616C29.4614 11.6917 29.4614 11.4368 29.2966 11.3091L28.1423 10.1194C28.0186 9.99194 27.7712 9.94946 27.6064 10.0769L25.3391 11.8191C25.2979 11.8616 25.2566 11.9041 25.2153 11.989L24.6794 13.1362L20.5981 17.2153L22.3296 19L26.3696 14.8784Z" fill="#FFFFFF" fill-opacity="1.000000" fill-rule="nonzero"/>
	<path id="Path" d="M27.3196 23.0447C26.3496 22.0037 24.9524 21.6287 23.6331 22.0037L17.3076 15.1733C17.3853 14.7986 17.4241 14.4653 17.4241 14.0906C17.4241 13.0493 17.0359 12.0081 16.2986 11.2168C15.2896 10.0923 13.7761 9.71753 12.3792 10.2173C12.3015 10.2588 12.1851 10.3838 12.1462 10.5503C12.1462 10.6753 12.1851 10.8003 12.2627 10.9253L14.1643 12.9661C14.5911 13.4241 14.5911 14.2153 14.1643 14.6736C13.7373 15.1316 13 15.1316 12.5732 14.6736L10.6716 12.6328C10.5552 12.5496 10.4387 12.5078 10.2837 12.5496C10.1672 12.5496 10.0508 12.6743 10.012 12.7993C9.54639 14.2571 9.89551 15.8813 10.9045 16.9641C11.603 17.7554 12.6121 18.1719 13.6208 18.1719C13.9314 18.1719 14.2808 18.1304 14.5911 18.0471L20.9553 24.8772C20.6062 26.2932 20.9941 27.7927 21.9255 28.8337C22.6628 29.6252 23.5942 30 24.6033 30C25.03 30 25.4182 29.9167 25.845 29.7917C25.9614 29.75 26.0779 29.6252 26.1167 29.5002C26.1555 29.3752 26.1167 29.2087 26.0002 29.1255L24.0986 27.0847C23.9048 26.8765 23.7495 26.5432 23.7495 26.21C23.7495 25.877 23.866 25.5852 24.0986 25.3354C24.3315 25.0854 24.6033 24.9607 24.9136 24.9607C25.2241 24.9607 25.4958 25.0854 25.7285 25.3354L27.6301 27.3762C27.7466 27.4595 27.863 27.5012 27.9795 27.5012C28.0957 27.4595 28.2122 27.3762 28.251 27.2512C28.3674 26.8347 28.4451 26.3767 28.4451 25.9185C28.4451 24.8357 28.0569 23.7944 27.3196 23.0447Z" fill="#FFFFFF" fill-opacity="1.000000" fill-rule="nonzero"/>
</svg>
