<svg width="95.200928" height="51.313965" viewBox="0 0 95.2009 51.314" fill="none" xmlns="http://www.w3.org/2000/svg" xmlns:xlink="http://www.w3.org/1999/xlink">
	<desc>
			Created with Pixso.
	</desc>
	<defs/>
	<path id="Fill 1" d="M34.4277 1.25L34.4277 5.5249C34.4277 6.07715 34.8755 6.5249 35.4277 6.5249L71.0405 6.5249C80.9736 6.5249 88.7751 14.3215 88.7751 24.4143C88.7751 24.7 89.0066 24.9314 89.292 24.9314L94.4338 24.9314C94.7195 24.9314 94.9509 24.7 94.9509 24.4143C94.9509 10.925 84.3164 0.25 71.0405 0.25L35.4277 0.25C34.8755 0.25 34.4277 0.697754 34.4277 1.25Z" fill="#6B7B84" fill-opacity="1.000000" fill-rule="evenodd"/>
	<path id="Fill 1" d="M34.4277 5.5249C34.4277 6.07715 34.8755 6.5249 35.4277 6.5249L71.0405 6.5249C80.9736 6.5249 88.7751 14.3215 88.7751 24.4143C88.7751 24.7 89.0066 24.9314 89.292 24.9314L94.4338 24.9314C94.7195 24.9314 94.9509 24.7 94.9509 24.4143C94.9509 10.925 84.3164 0.25 71.0405 0.25L35.4277 0.25C34.8755 0.25 34.4277 0.697754 34.4277 1.25L34.4277 5.5249Z" stroke="#80949F" stroke-opacity="1.000000" stroke-width="0.500000"/>
	<path id="Fill 3" d="M6.50879 25.3699C6.50879 25.1279 6.3125 24.9316 6.07031 24.9316L0.688232 24.9316C0.446289 24.9316 0.25 25.1279 0.25 25.3699C0.25 39.0193 10.2776 50.2888 23.2441 51.0264L64.7566 51.064C65.3091 51.064 65.7573 50.6167 65.7573 50.064L65.7573 45.4844C65.7573 44.9321 65.3096 44.4844 64.7573 44.4844L24.6741 44.4844C14.6338 44.4561 6.50879 35.9407 6.50879 25.3699Z" fill="#6B7B84" fill-opacity="1.000000" fill-rule="evenodd"/>
	<path id="Fill 3" d="M0.688232 24.9316C0.446289 24.9316 0.25 25.1279 0.25 25.3699C0.25 39.0193 10.2776 50.2888 23.2441 51.0264L64.7566 51.064C65.3091 51.064 65.7573 50.6167 65.7573 50.064L65.7573 45.4844C65.7573 44.9321 65.3096 44.4844 64.7573 44.4844L24.6741 44.4844C14.6338 44.4561 6.50879 35.9407 6.50879 25.3699C6.50879 25.1279 6.3125 24.9316 6.07031 24.9316L0.688232 24.9316Z" stroke="#80949F" stroke-opacity="1.000000" stroke-width="0.500000"/>
	<path id="Fill 5" d="M27.1409 39.4502C29.8274 39.4502 32.0649 38.918 34.2751 37.8232L34.4277 37.6777L34.4277 29.8433L33.6008 30.9226C32.0093 32.6956 29.8721 33.6714 27.4541 33.6714C22.9504 33.6714 18.427 30.7036 18.427 25.0315C18.427 20.7451 21.5466 16.1897 27.2957 16.1897C28.4429 16.1897 31.2327 16.4663 33.5967 19.0256L34.4277 20.0693L34.4277 12.2705L34.282 12.123C32.03 10.9724 29.7332 10.4131 27.1138 10.4131C22.634 10.4131 19.1377 11.6155 16.3538 14.0867C14.5879 15.6355 11.6426 19.1062 11.6426 24.95C11.6426 29.2708 13.1516 32.6453 16.3762 35.572C19.3762 38.2539 22.7024 39.4502 27.1409 39.4502Z" fill="#6B7B84" fill-opacity="1.000000" fill-rule="evenodd"/>
	<path id="Fill 5" d="M34.2751 37.8232L34.4277 37.6777L34.4277 29.8433L33.6008 30.9226C32.0093 32.6956 29.8721 33.6714 27.4541 33.6714C22.9504 33.6714 18.427 30.7036 18.427 25.0315C18.427 20.7451 21.5466 16.1897 27.2957 16.1897C28.4429 16.1897 31.2327 16.4663 33.5967 19.0256L34.4277 20.0693L34.4277 12.2705L34.282 12.123C32.03 10.9724 29.7332 10.4131 27.1138 10.4131C22.634 10.4131 19.1377 11.6155 16.3538 14.0867C14.5879 15.6355 11.6426 19.1062 11.6426 24.95C11.6426 29.2708 13.1516 32.6453 16.3762 35.572C19.3762 38.2539 22.7024 39.4502 27.1409 39.4502C29.8274 39.4502 32.0649 38.918 34.2751 37.8232Z" stroke="#80949F" stroke-opacity="1.000000" stroke-width="0.500000"/>
	<mask id="mask_0_1926" fill="white">
		<path id="Fill 6" d="M56.9126 26.7878C55.1897 28.5437 52.7087 29.4758 49.5391 29.4758L46.655 29.4758L46.655 39.4504L40.1238 39.4504L40.1238 10.4133L48.7107 10.4133C51.9297 10.4133 54.2117 10.8909 56.3506 12.8015C58.9597 15.1646 59.3489 18.4282 59.3489 20.1016C59.3489 21.6653 59.032 24.6316 56.9126 26.7878ZM46.5322 16.9463L47.8704 16.9463C49.0979 16.9463 50.4968 17.0146 51.5559 17.7505C52.073 18.127 52.9404 18.9988 52.9404 20.582C52.9404 21.752 52.4333 22.801 51.5955 23.4558C50.5762 24.2102 49.3743 24.2075 48.3774 24.2053C48.324 24.2051 48.2712 24.2051 48.219 24.2051L46.5322 24.2051L46.5322 16.9463Z" clip-rule="evenodd" fill="" fill-opacity="1.000000" fill-rule="evenodd"/>
	</mask>
	<path id="Fill 6" d="M56.9126 26.7878C55.1897 28.5437 52.7087 29.4758 49.5391 29.4758L46.655 29.4758L46.655 39.4504L40.1238 39.4504L40.1238 10.4133L48.7107 10.4133C51.9297 10.4133 54.2117 10.8909 56.3506 12.8015C58.9597 15.1646 59.3489 18.4282 59.3489 20.1016C59.3489 21.6653 59.032 24.6316 56.9126 26.7878ZM46.5322 16.9463L47.8704 16.9463C49.0979 16.9463 50.4968 17.0146 51.5559 17.7505C52.073 18.127 52.9404 18.9988 52.9404 20.582C52.9404 21.752 52.4333 22.801 51.5955 23.4558C50.5762 24.2102 49.3743 24.2075 48.3774 24.2053C48.324 24.2051 48.2712 24.2051 48.219 24.2051L46.5322 24.2051L46.5322 16.9463Z" clip-rule="evenodd" fill="#6B7B84" fill-opacity="1.000000" fill-rule="evenodd" mask="url(#mask_0_1926)"/>
	<path id="Fill 6" d="M57.0911 26.9629Q55.7515 28.3281 53.8545 29.0249Q51.9468 29.7258 49.5391 29.7258L46.655 29.7258L46.655 29.4758L46.905 29.4758L46.905 39.7004L39.8738 39.7004L39.8738 10.1633L48.7107 10.1633Q49.9951 10.1633 50.9883 10.2693Q52.0913 10.3867 53.0051 10.6506Q53.9775 10.9316 54.8284 11.4036Q55.7061 11.8906 56.5171 12.615Q58.2935 14.2236 59.0662 16.6338Q59.3616 17.5549 59.4951 18.5542Q59.5989 19.3308 59.5989 20.1016Q59.5989 21.7732 59.1658 23.291Q58.5388 25.49 57.0908 26.9631L57.0911 26.9629ZM56.7344 26.6125Q58.0928 25.2305 58.6851 23.1538Q59.0989 21.7034 59.0989 20.1016Q59.0989 19.364 58.9995 18.6204Q58.8718 17.6653 58.5901 16.7864Q57.8582 14.5042 56.1841 12.9878Q55.4146 12.3005 54.5859 11.8408Q53.7844 11.3962 52.8665 11.1311Q51.9946 10.8794 50.9353 10.7664Q49.9685 10.6633 48.7107 10.6633L40.1238 10.6633L40.1238 10.4133L40.3738 10.4133L40.3738 39.4504L40.1238 39.4504L40.1238 39.2004L46.655 39.2004L46.655 39.4504L46.405 39.4504L46.405 29.2258L49.5391 29.2258Q51.8579 29.2258 53.6821 28.5557Q55.4734 27.8975 56.7341 26.6128L56.7344 26.6125ZM46.5322 16.6963L47.8704 16.6963Q48.4253 16.6963 48.8291 16.7188Q49.3701 16.749 49.8186 16.8259Q50.9407 17.0186 51.6985 17.5452L51.7007 17.5466L51.7031 17.5483Q52.2827 17.9705 52.6555 18.5837Q53.1904 19.4631 53.1904 20.582Q53.1904 21.5093 52.8081 22.3188Q52.4292 23.1216 51.7495 23.6528L51.7468 23.6548L51.7444 23.6567Q51.0217 24.1914 50.0198 24.3608Q49.6372 24.4253 49.168 24.4451Q48.8936 24.4565 48.377 24.4553L48.2188 24.4551L46.2822 24.4551L46.2822 16.6963L46.5322 16.6963ZM46.5322 17.1963L46.5322 16.9463L46.7822 16.9463L46.7822 24.2051L46.5322 24.2051L46.5322 23.9551L48.2195 23.9551L48.3782 23.9553Q48.8838 23.9563 49.147 23.9453Q49.585 23.927 49.9363 23.8677Q50.8206 23.7185 51.4468 23.2549L51.5955 23.4558L51.4417 23.2588Q52.0278 22.8008 52.356 22.1055Q52.6904 21.3972 52.6904 20.582Q52.6904 19.6033 52.2285 18.8435Q51.9075 18.3157 51.4087 17.9524L51.5559 17.7505L51.4131 17.9558Q50.7466 17.4924 49.7341 17.3188Q49.02 17.1963 47.8704 17.1963L46.5322 17.1963Z" fill="#80949F" fill-opacity="1.000000" fill-rule="nonzero"/>
	<path id="Fill 7" d="M78.9419 24.1265C77.522 22.8438 75.5398 22.1003 73.29 21.3291C71.6873 20.7603 70.8042 20.447 70.2153 19.8999C69.7505 19.4976 69.5435 19.061 69.5435 18.4839C69.5435 17.22 70.3857 15.8691 72.751 15.8691C74.3584 15.8691 75.7041 16.5698 76.7512 17.9507L77.167 18.499L80.616 14.0232L80.3015 13.7021C78.1921 11.55 75.4126 10.4131 72.2629 10.4131C65.9087 10.4131 63.0642 14.6277 63.0642 18.8044C63.0642 21.0459 63.8484 22.8538 65.3899 24.1753C66.77 25.3811 68.4529 26.0569 70.0674 26.6084L70.2498 26.6702C71.6833 27.1531 73.166 27.6531 74.0515 28.4612C74.6677 29.0381 74.9421 29.6653 74.9421 30.4944C74.9421 32.3945 73.4746 33.6714 71.29 33.6714C69.5635 33.6714 67.2896 32.8086 66.0867 30.3875L65.772 29.7529L61.4851 33.7988L61.738 34.1633C63.1057 36.1377 66.1921 39.4502 71.4934 39.4502C77.3391 39.4502 81.4221 35.6187 81.4221 30.1328C81.4221 26.9951 80.0718 25.1328 78.9419 24.1265Z" fill="#6B7B84" fill-opacity="1.000000" fill-rule="evenodd"/>
	<path id="Fill 7" d="M73.29 21.3291C71.6873 20.7603 70.8042 20.447 70.2153 19.8999C69.7505 19.4976 69.5435 19.061 69.5435 18.4839C69.5435 17.22 70.3857 15.8691 72.751 15.8691C74.3584 15.8691 75.7041 16.5698 76.7512 17.9507L77.167 18.499L80.616 14.0232L80.3015 13.7021C78.1921 11.55 75.4126 10.4131 72.2629 10.4131C65.9087 10.4131 63.0642 14.6277 63.0642 18.8044C63.0642 21.0459 63.8484 22.8538 65.3899 24.1753C66.77 25.3811 68.4529 26.0569 70.0674 26.6084L70.2498 26.6702C71.6833 27.1531 73.166 27.6531 74.0515 28.4612C74.6677 29.0381 74.9421 29.6653 74.9421 30.4944C74.9421 32.3945 73.4746 33.6714 71.29 33.6714C69.5635 33.6714 67.2896 32.8086 66.0867 30.3875L65.772 29.7529L61.4851 33.7988L61.738 34.1633C63.1057 36.1377 66.1921 39.4502 71.4934 39.4502C77.3391 39.4502 81.4221 35.6187 81.4221 30.1328C81.4221 26.9951 80.0718 25.1328 78.9419 24.1265C77.522 22.8438 75.5398 22.1003 73.29 21.3291Z" stroke="#80949F" stroke-opacity="1.000000" stroke-width="0.500000"/>
</svg>
